HIERARCHY
ROOT hip
{
  OFFSET 5.51535 103.731 -2.80141
  CHANNELS 6 Xposition Yposition Zposition Zrotation Xrotation Yrotation
  JOINT abdomen
  {
    OFFSET 0 -1.186 -1.5018
    CHANNELS 6 Xposition Yposition Zposition Zrotation Xrotation Yrotation
    JOINT abdomen2
    {
      OFFSET 0 9.964 0.2134
      CHANNELS 6 Xposition Yposition Zposition Zrotation Xrotation Yrotation
      JOINT chest
      {
        OFFSET 0 13.134 -3.2573
        CHANNELS 6 Xposition Yposition Zposition Zrotation Xrotation Yrotation
        JOINT neck
        {
          OFFSET 0 20.686 -1.6905
          CHANNELS 6 Xposition Yposition Zposition Zrotation Xrotation Yrotation
          JOINT head
          {
            OFFSET 0 7.23801 -0.1237
            CHANNELS 6 Xposition Yposition Zposition Zrotation Xrotation Yrotation
            End Site
            {
              OFFSET 0 0 0
            }
          }
        }
        JOINT lCollar
        {
          OFFSET 1.7069 20.075 5.0056
          CHANNELS 6 Xposition Yposition Zposition Zrotation Xrotation Yrotation
          JOINT lShldr
          {
            OFFSET 13.6458 -0.0470195 -4.849
            CHANNELS 6 Xposition Yposition Zposition Zrotation Xrotation Yrotation
            JOINT lForeArm
            {
              OFFSET 28.3255 -0.97589 2.2888
              CHANNELS 6 Xposition Yposition Zposition Zrotation Xrotation Yrotation
              JOINT lHand
              {
                OFFSET 22.1583 -0.529998 10.8316
                CHANNELS 6 Xposition Yposition Zposition Zrotation Xrotation Yrotation
                JOINT lThumb1
                {
                  OFFSET 0.786 0.111997 2.5817
                  CHANNELS 6 Xposition Yposition Zposition Zrotation Xrotation Yrotation
                  JOINT lThumb2
                  {
                    OFFSET 0.360097 -0.877999 4.2331
                    CHANNELS 6 Xposition Yposition Zposition Zrotation Xrotation Yrotation
                    JOINT lThumb2_End
                    {
                      OFFSET 1.8127 -1.21601 2.2227
                      CHANNELS 6 Xposition Yposition Zposition Zrotation Xrotation Yrotation
                      End Site
                      {
                        OFFSET 0.0180981 -0.012195 0.0222007
                      }
                    }
                  }
                }
                JOINT lCarpal1
                {
                  OFFSET 0.9571 1.114 1.7695
                  CHANNELS 6 Xposition Yposition Zposition Zrotation Xrotation Yrotation
                  JOINT lIndex1
                  {
                    OFFSET 4.12461 0.486992 4.1451
                    CHANNELS 6 Xposition Yposition Zposition Zrotation Xrotation Yrotation
                    JOINT lIndex2
                    {
                      OFFSET 3.4052 -1.45401 2.7682
                      CHANNELS 6 Xposition Yposition Zposition Zrotation Xrotation Yrotation
                      JOINT lIndex2_End
                      {
                        OFFSET 1.45309 -1.79499 1.2713
                        CHANNELS 6 Xposition Yposition Zposition Zrotation Xrotation Yrotation
                        End Site
                        {
                          OFFSET 0.0144979 -0.0179083 0.0126995
                        }
                      }
                    }
                  }
                  JOINT lMid1
                  {
                    OFFSET 5.6954 0.209987 2.1184
                    CHANNELS 6 Xposition Yposition Zposition Zrotation Xrotation Yrotation
                    JOINT lMid2
                    {
                      OFFSET 3.9766 -1.53999 2.3863
                      CHANNELS 6 Xposition Yposition Zposition Zrotation Xrotation Yrotation
                      JOINT lMid2_End
                      {
                        OFFSET 1.4042 -1.926 1.125
                        CHANNELS 6 Xposition Yposition Zposition Zrotation Xrotation Yrotation
                        End Site
                        {
                          OFFSET 0.013999 -0.0193044 0.011301
                        }
                      }
                    }
                  }
                }
                JOINT lCarpal2
                {
                  OFFSET 2.0956 0.66 -0.3894
                  CHANNELS 6 Xposition Yposition Zposition Zrotation Xrotation Yrotation
                  JOINT lRing1
                  {
                    OFFSET 5.0395 -0.090013 2.4971
                    CHANNELS 6 Xposition Yposition Zposition Zrotation Xrotation Yrotation
                    JOINT lRing2
                    {
                      OFFSET 3.7921 -1.55199 1.4806
                      CHANNELS 6 Xposition Yposition Zposition Zrotation Xrotation Yrotation
                      JOINT lRing2_End
                      {
                        OFFSET 1.4655 -1.808 0.9609
                        CHANNELS 6 Xposition Yposition Zposition Zrotation Xrotation Yrotation
                        End Site
                        {
                          OFFSET 0.0147015 -0.0181014 0.00959957
                        }
                      }
                    }
                  }
                  JOINT lPinky1
                  {
                    OFFSET 4.9141 -1.269 0.3591
                    CHANNELS 6 Xposition Yposition Zposition Zrotation Xrotation Yrotation
                    JOINT lPinky2
                    {
                      OFFSET 3.1477 -1.685 0.8462
                      CHANNELS 6 Xposition Yposition Zposition Zrotation Xrotation Yrotation
                      JOINT lPinky2_End
                      {
                        OFFSET 0.805498 -1.58501 0.795499
                        CHANNELS 6 Xposition Yposition Zposition Zrotation Xrotation Yrotation
                        End Site
                        {
                          OFFSET 0.00809703 -0.0157944 0.00799848
                        }
                      }
                    }
                  }
                }
              }
            }
          }
        }
        JOINT rCollar
        {
          OFFSET -1.7069 20.075 5.0056
          CHANNELS 6 Xposition Yposition Zposition Zrotation Xrotation Yrotation
          JOINT rShldr
          {
            OFFSET -13.6458 -0.0470107 -4.849
            CHANNELS 6 Xposition Yposition Zposition Zrotation Xrotation Yrotation
            JOINT rForeArm
            {
              OFFSET -28.3255 -0.975895 2.2888
              CHANNELS 6 Xposition Yposition Zposition Zrotation Xrotation Yrotation
              JOINT rHand
              {
                OFFSET -22.1583 -0.530007 10.8316
                CHANNELS 6 Xposition Yposition Zposition Zrotation Xrotation Yrotation
                JOINT rThumb1
                {
                  OFFSET -0.785997 0.112005 2.5817
                  CHANNELS 6 Xposition Yposition Zposition Zrotation Xrotation Yrotation
                  JOINT rThumb2
                  {
                    OFFSET -0.360106 -0.877994 4.2331
                    CHANNELS 6 Xposition Yposition Zposition Zrotation Xrotation Yrotation
                    JOINT rThumb2_End
                    {
                      OFFSET -1.8127 -1.216 2.2227
                      CHANNELS 6 Xposition Yposition Zposition Zrotation Xrotation Yrotation
                      End Site
                      {
                        OFFSET -0.0180972 -0.0121973 0.0222005
                      }
                    }
                  }
                }
                JOINT rCarpal1
                {
                  OFFSET -0.9571 1.114 1.7695
                  CHANNELS 6 Xposition Yposition Zposition Zrotation Xrotation Yrotation
                  JOINT rIndex1
                  {
                    OFFSET -4.1246 0.487011 4.1451
                    CHANNELS 6 Xposition Yposition Zposition Zrotation Xrotation Yrotation
                    JOINT rIndex2
                    {
                      OFFSET -3.4052 -1.45401 2.7682
                      CHANNELS 6 Xposition Yposition Zposition Zrotation Xrotation Yrotation
                      JOINT rIndex2_End
                      {
                        OFFSET -1.4531 -1.795 1.2713
                        CHANNELS 6 Xposition Yposition Zposition Zrotation Xrotation Yrotation
                        End Site
                        {
                          OFFSET -0.0145077 -0.0180048 0.0127017
                        }
                      }
                    }
                  }
                  JOINT rMid1
                  {
                    OFFSET -5.6954 0.210002 2.1184
                    CHANNELS 6 Xposition Yposition Zposition Zrotation Xrotation Yrotation
                    JOINT rMid2
                    {
                      OFFSET -3.9766 -1.54 2.3863
                      CHANNELS 6 Xposition Yposition Zposition Zrotation Xrotation Yrotation
                      JOINT rMid2_End
                      {
                        OFFSET -1.4042 -1.926 1.125
                        CHANNELS 6 Xposition Yposition Zposition Zrotation Xrotation Yrotation
                        End Site
                        {
                          OFFSET -0.0139948 -0.0192916 0.0112994
                        }
                      }
                    }
                  }
                }
                JOINT rCarpal2
                {
                  OFFSET -2.0956 0.66 -0.3894
                  CHANNELS 6 Xposition Yposition Zposition Zrotation Xrotation Yrotation
                  JOINT rRing1
                  {
                    OFFSET -5.03951 -0.0899879 2.4971
                    CHANNELS 6 Xposition Yposition Zposition Zrotation Xrotation Yrotation
                    JOINT rRing2
                    {
                      OFFSET -3.7921 -1.55201 1.4806
                      CHANNELS 6 Xposition Yposition Zposition Zrotation Xrotation Yrotation
                      JOINT rRing2_End
                      {
                        OFFSET -1.4655 -1.808 0.960901
                        CHANNELS 6 Xposition Yposition Zposition Zrotation Xrotation Yrotation
                        End Site
                        {
                          OFFSET -0.0146934 -0.0180999 0.00959832
                        }
                      }
                    }
                  }
                  JOINT rPinky1
                  {
                    OFFSET -4.91411 -1.26899 0.359202
                    CHANNELS 6 Xposition Yposition Zposition Zrotation Xrotation Yrotation
                    JOINT rPinky2
                    {
                      OFFSET -3.14769 -1.68501 0.846199
                      CHANNELS 6 Xposition Yposition Zposition Zrotation Xrotation Yrotation
                      JOINT rPinky2_End
                      {
                        OFFSET -0.805498 -1.585 0.7955
                        CHANNELS 6 Xposition Yposition Zposition Zrotation Xrotation Yrotation
                        End Site
                        {
                          OFFSET -0.00810035 -0.0158035 0.00800029
                        }
                      }
                    }
                  }
                }
              }
            }
          }
        }
      }
    }
  }
  JOINT lThigh
  {
    OFFSET 8.367 -8.2066 0.5982
    CHANNELS 6 Xposition Yposition Zposition Zrotation Xrotation Yrotation
    JOINT lShin
    {
      OFFSET 2.1923 -43.463 -0.4932
      CHANNELS 6 Xposition Yposition Zposition Zrotation Xrotation Yrotation
      JOINT lFoot
      {
        OFFSET 0.733301 -45.8593 -2.6451
        CHANNELS 6 Xposition Yposition Zposition Zrotation Xrotation Yrotation
        End Site
        {
          OFFSET 2.6618 -4.2699 12.3931
        }
      }
    }
  }
  JOINT rThigh
  {
    OFFSET -8.367 -8.2066 0.5982
    CHANNELS 6 Xposition Yposition Zposition Zrotation Xrotation Yrotation
    JOINT rShin
    {
      OFFSET -2.1923 -43.463 -0.4931
      CHANNELS 6 Xposition Yposition Zposition Zrotation Xrotation Yrotation
      JOINT rFoot
      {
        OFFSET -0.733299 -45.8593 -2.6451
        CHANNELS 6 Xposition Yposition Zposition Zrotation Xrotation Yrotation
        End Site
        {
          OFFSET -2.6618 -4.2699 12.3931
        }
      }
    }
  }
}
MOTION
Frames:	4
Frame Time:	0.0333333
-36.7166 150.54 -19.1363 -5.70157 -28.0471 27.2718 9.82168e-007 -1.186 -1.5018 -0.458791 4.91665 -4.44835 2.55742e-006 9.96399 0.213397 -0.53476 9.85403 -8.90664 -1.71024e-007 13.134 -3.2573 -0.534762 9.85403 -8.90664 1.14499e-006 20.686 -1.6905 0.419427 8.27918 11.2857 8.19591e-006 7.23801 -0.123698 12.1906 1.03821 16.5832 1.7069 20.075 5.0056 8.6376 -1.8405 -19.5369 13.6458 -0.0470112 -4.849 -50.056 -1.52695 -14.6717 28.3255 -0.975904 2.2888 -35.4703 37.1754 -72.9647 22.1583 -0.52998 10.8316 -43.4294 -24.8858 -0.0582773 0.786003 0.111995 2.58171 29.0017 36.8211 -34.7961 0.360099 -0.877995 4.2331 -6.33901 -0.11531 -11.569 1.8127 -1.21601 2.2227 6.48486 1.48417 12.0601 0.9571 1.114 1.7695 -1.59028e-015 1.59028e-015 2.38542e-015 4.1246 0.486993 4.1451 -4.8873 4.53868 12.6178 3.4052 -1.454 2.7682 -36.3635 10.033 17.8992 1.4531 -1.79499 1.2713 -37.4308 10.1387 18.4809 5.69541 0.209988 2.1184 -1.587 -0.57703 1.61798 3.9766 -1.53999 2.38631 -43.8284 12.1761 22.7531 1.4042 -1.926 1.125 -9.03161 4.06863 4.02205 2.0956 0.66 -0.3894 -1.59028e-015 1.59028e-015 2.38542e-015 5.0395 -0.0900146 2.49711 -8.44088 -1.94815 5.79526 3.7921 -1.55199 1.48059 -14.2679 6.4829 7.41465 1.4655 -1.808 0.960898 -15.7293 7.01827 8.23429 4.9141 -1.269 0.359103 10.4038 -12.5936 2.33179 3.1477 -1.685 0.846197 -18.2185 8.51742 9.60867 0.805501 -1.585 0.795493 -8.80546 4.59369 4.39816 -1.7069 20.075 5.0056 0.636914 0.106749 -5.92518 -13.6458 -0.0470104 -4.849 51.1863 3.53458 42.063 -28.3255 -0.975889 2.28881 68.6584 22.1375 88.5898 -22.1583 -0.530008 10.8316 -25.8618 2.8915 14.9006 -0.786003 0.112005 2.5817 -19.2123 49.9311 17.7821 -0.36011 -0.877991 4.2331 -0.518172 0.461463 -1.59087 -1.81269 -1.216 2.2227 -4.44359 5.0282 -15.268 -0.9571 1.114 1.7695 3.18055e-015 3.18055e-015 1.59028e-014 -4.12461 0.487009 4.14511 -23.6186 3.40243 -15.5054 -3.4052 -1.454 2.76819 39.498 10.0974 -9.27452 -1.4531 -1.795 1.2713 45.4781 10.9508 -11.16 -5.69541 0.210001 2.1184 -1.04225 5.48637 -10.0635 -3.9766 -1.54 2.3863 52.3088 13.53 -14.1042 -1.4042 -1.926 1.125 44.0034 12.3921 -11.1855 -2.0956 0.66 -0.3894 3.18055e-015 3.18055e-015 1.59028e-014 -5.03951 -0.0899889 2.4971 16.4925 0.275074 -5.65891 -3.7921 -1.55201 1.48059 37.3339 11.9097 -10.7861 -1.4655 -1.808 0.960902 38.6322 12.1693 -11.2725 -4.91411 -1.26899 0.359201 24.6636 -0.263368 -2.07522 -3.1477 -1.68501 0.846203 30.529 11.3153 -8.19424 -0.805499 -1.58499 0.795504 30.4593 11.2958 -8.16997 8.36701 -8.2066 0.598207 6.14355 -50.7149 12.2513 2.18999 -43.4632 -0.49048 -179.374 73.1329 -179.035 0.733291 -45.8593 -2.6451 0.807006 5.77827 -10.7195 -8.36701 -8.2066 0.598204 18.7186 -71.7477 -19.3915 -2.1923 -43.463 -0.493113 35.9932 66.6992 -32.2645 -0.733288 -45.8593 -2.6451 5.60445 3.03381 -11.0132 
-36.5443 150.186 -19.07 -6.08165 -28.0862 25.9835 -1.01845e-006 -1.186 -1.5018 -0.530635 4.89209 -4.22842 7.98748e-007 9.964 0.2134 -0.700087 9.80993 -8.45787 -8.45159e-007 13.134 -3.2573 -0.700087 9.80993 -8.45786 -4.29429e-006 20.686 -1.6905 0.478643 8.46533 12.2059 -1.29205e-006 7.23801 -0.123701 11.9582 1.53125 17.1371 1.7069 20.075 5.0056 9.59368 -1.84282 -19.543 13.6458 -0.0470029 -4.849 -50.5086 -1.32991 -15.4295 28.3255 -0.975902 2.28881 -35.2602 37.6 -73.0249 22.1583 -0.529985 10.8316 -42.5683 -25.6264 -0.472859 0.786003 0.111995 2.58171 29.0017 36.8211 -34.7961 0.360097 -0.878 4.2331 -6.33879 -0.115547 -11.5696 1.8127 -1.21601 2.2227 6.48486 1.48417 12.0601 0.9571 1.114 1.7695 1.59028e-015 -1.59028e-015 3.97569e-016 4.1246 0.486992 4.1451 -4.8873 4.53869 12.6178 3.4052 -1.454 2.76819 -36.3636 10.033 17.8992 1.4531 -1.79499 1.2713 -37.4308 10.1387 18.4808 5.6954 0.209989 2.1184 -1.58699 -0.577012 1.61798 3.9766 -1.53999 2.3863 -43.8284 12.1761 22.7531 1.4042 -1.926 1.125 -9.03169 4.06808 4.02172 2.0956 0.66 -0.3894 1.59028e-015 -1.59028e-015 3.97569e-016 5.0395 -0.0900129 2.4971 -8.44088 -1.94814 5.79526 3.7921 -1.55199 1.4806 -14.2679 6.48288 7.41466 1.4655 -1.808 0.960902 -15.7293 7.01792 8.23414 4.9141 -1.269 0.359106 10.4038 -12.5936 2.33178 3.1477 -1.685 0.846201 -18.2187 8.5175 9.60879 0.805499 -1.585 0.795496 -8.80547 4.5937 4.39818 -1.7069 20.075 5.0056 0.824421 -0.104292 -6.2279 -13.6458 -0.047015 -4.849 50.6524 2.98497 41.5222 -28.3255 -0.975885 2.28881 68.513 22.3588 88.7434 -22.1583 -0.530007 10.8316 -25.34 1.59329 14.5564 -0.786003 0.112004 2.5817 -19.2123 49.9311 17.7821 -0.360108 -0.877992 4.2331 -0.518171 0.46147 -1.59088 -1.8127 -1.216 2.2227 -4.44358 5.02821 -15.268 -0.9571 1.114 1.7695 -1.41245e-030 6.36111e-015 1.27222e-014 -4.12461 0.487013 4.1451 -23.6186 3.40244 -15.5054 -3.4052 -1.454 2.76819 39.4982 10.0974 -9.27459 -1.4531 -1.795 1.2713 45.4781 10.9508 -11.16 -5.6954 0.210004 2.1184 -1.04223 5.48637 -10.0635 -3.9766 -1.54 2.3863 52.3088 13.53 -14.1043 -1.4042 -1.926 1.125 44.0034 12.3922 -11.1855 -2.0956 0.66 -0.3894 -1.41245e-030 6.36111e-015 1.27222e-014 -5.03951 -0.0899853 2.4971 16.4925 0.275141 -5.65894 -3.7921 -1.55201 1.4806 37.3339 11.9098 -10.7861 -1.4655 -1.80801 0.960897 38.6322 12.1693 -11.2725 -4.91411 -1.26899 0.359203 24.6636 -0.263368 -2.07522 -3.1477 -1.68501 0.846199 30.5287 11.3152 -8.19416 -0.8055 -1.585 0.795499 30.4593 11.2958 -8.16997 8.36701 -8.20661 0.598204 6.24727 -48.853 11.9584 2.19089 -43.4631 -0.491318 -179.639 75.1295 -178.48 0.733291 -45.8594 -2.6451 0.719354 3.32266 -10.6829 -8.36701 -8.20661 0.598198 18.0523 -70.3916 -19.4987 -2.19231 -43.463 -0.493123 36.5063 66.6447 -32.2057 -0.733322 -45.8593 -2.64511 4.07638 1.33581 -10.1008 
-36.3223 149.721 -19.0065 -6.59187 -28.3118 24.5787 -2.10938e-006 -1.18599 -1.5018 -0.576031 4.86357 -4.01036 -2.25621e-006 9.964 0.213402 -0.812248 9.75536 -8.01509 -1.56612e-006 13.134 -3.2573 -0.812247 9.75536 -8.0151 2.08211e-005 20.6861 -1.6905 0.538765 8.70235 13.0452 7.78794e-006 7.238 -0.123698 11.647 2.13952 17.5955 1.7069 20.075 5.0056 10.8721 -1.86055 -19.6627 13.6458 -0.0470091 -4.849 -51.0064 -1.23264 -16.3337 28.3255 -0.9759 2.2888 -34.7537 37.9199 -73.0519 22.1583 -0.529981 10.8316 -42.0329 -26.6606 -1.59872 0.786005 0.111998 2.5817 29.0017 36.8211 -34.7961 0.360099 -0.877998 4.2331 -6.33857 -0.115773 -11.5702 1.8127 -1.21601 2.22269 6.48485 1.48416 12.0601 0.9571 1.114 1.7695 4.41391e-032 1.59028e-015 -1.59028e-015 4.12461 0.486994 4.1451 -4.8873 4.53869 12.6178 3.4052 -1.45401 2.7682 -36.3636 10.033 17.8992 1.4531 -1.79499 1.27129 -37.4308 10.1387 18.4808 5.6954 0.209988 2.1184 -1.58701 -0.577031 1.61798 3.9766 -1.53999 2.3863 -43.8284 12.1761 22.7531 1.4042 -1.926 1.125 -9.03176 4.06757 4.02141 2.0956 0.66 -0.3894 4.41391e-032 1.59028e-015 -1.59028e-015 5.0395 -0.0900116 2.4971 -8.44088 -1.94815 5.79526 3.7921 -1.552 1.48061 -14.2679 6.48286 7.41464 1.4655 -1.808 0.9609 -15.7292 7.01754 8.23398 4.9141 -1.269 0.3591 10.4038 -12.5936 2.33179 3.1477 -1.685 0.846198 -18.219 8.51759 9.60892 0.805498 -1.58501 0.795498 -8.80546 4.59368 4.39818 -1.7069 20.075 5.0056 1.04183 -0.274071 -6.47372 -13.6458 -0.0470008 -4.849 50.3503 2.77452 41.2587 -28.3255 -0.97589 2.2888 68.2798 22.0212 89.0673 -22.1583 -0.530009 10.8316 -24.6129 0.678584 13.9321 -0.786004 0.112006 2.5817 -19.2124 49.9311 17.7822 -0.360104 -0.877994 4.2331 -0.518167 0.461482 -1.59088 -1.8127 -1.216 2.2227 -4.44361 5.0282 -15.268 -0.9571 1.114 1.7695 3.18055e-015 3.18055e-015 6.36111e-015 -4.12461 0.48701 4.1451 -23.6186 3.40242 -15.5054 -3.40519 -1.45401 2.76819 39.4984 10.0975 -9.27467 -1.4531 -1.795 1.2713 45.4781 10.9508 -11.16 -5.6954 0.210002 2.1184 -1.04224 5.48636 -10.0635 -3.9766 -1.54 2.3863 52.3088 13.53 -14.1043 -1.4042 -1.926 1.125 44.0034 12.3922 -11.1855 -2.0956 0.66 -0.3894 3.18055e-015 3.18055e-015 6.36111e-015 -5.03951 -0.0899886 2.4971 16.4923 0.275017 -5.65887 -3.79209 -1.55201 1.4806 37.3339 11.9097 -10.7861 -1.4655 -1.808 0.960902 38.6322 12.1693 -11.2725 -4.91411 -1.26899 0.359201 24.6636 -0.263347 -2.07524 -3.1477 -1.68501 0.846201 30.5286 11.3151 -8.19409 -0.805499 -1.585 0.795501 30.4593 11.2958 -8.16998 8.367 -8.2066 0.598199 7.07673 -47.4682 12.0117 2.19182 -43.463 -0.492524 -179.999 77.4336 -177.789 0.733312 -45.8594 -2.64509 0.848265 1.70363 -10.7835 -8.367 -8.2066 0.598198 17.2744 -69.0151 -19.3661 -2.1923 -43.463 -0.493083 37.0163 66.6479 -32.2533 -0.733325 -45.8593 -2.64511 2.81399 -0.125386 -9.24814 
-36.0721 149.167 -18.9676 -7.12491 -28.6997 23.1227 2.08083e-006 -1.186 -1.5018 -0.596484 4.84084 -3.77162 -4.43529e-007 9.964 0.2134 -0.875517 9.71035 -7.53309 -2.96237e-006 13.134 -3.2573 -0.875514 9.71036 -7.5331 6.92233e-006 20.686 -1.6905 0.586541 9.03778 13.8729 2.42333e-006 7.238 -0.123699 11.2472 2.75923 18.0145 1.7069 20.075 5.0056 12.1306 -1.89146 -19.8475 13.6458 -0.0470178 -4.849 -51.4418 -1.17781 -17.2832 28.3255 -0.975888 2.28881 -34.212 38.0735 -72.9967 22.1583 -0.529989 10.8316 -41.8492 -27.7392 -2.99841 0.786002 0.111995 2.58171 29.0018 36.8212 -34.7962 0.360095 -0.878002 4.23309 -6.33836 -0.115999 -11.5708 1.81269 -1.21602 2.22269 6.48486 1.48415 12.0601 0.9571 1.114 1.7695 -1.59028e-015 -1.59028e-015 -1.59028e-015 4.12461 0.486993 4.1451 -4.88729 4.5387 12.6178 3.4052 -1.45401 2.7682 -36.3636 10.033 17.8992 1.4531 -1.79499 1.2713 -37.4308 10.1387 18.4808 5.6954 0.209987 2.1184 -1.58701 -0.577034 1.61797 3.9766 -1.53999 2.3863 -43.8284 12.1761 22.7532 1.4042 -1.926 1.125 -9.03185 4.06701 4.02108 2.0956 0.66 -0.3894 -1.59028e-015 -1.59028e-015 -1.59028e-015 5.0395 -0.0900127 2.4971 -8.44088 -1.94816 5.79526 3.7921 -1.55199 1.48061 -14.2679 6.48288 7.41465 1.4655 -1.808 0.960901 -15.7291 7.01715 8.23381 4.9141 -1.269 0.359095 10.4038 -12.5936 2.33178 3.1477 -1.68501 0.846204 -18.2192 8.51766 9.60905 0.805499 -1.58501 0.795503 -8.80549 4.59369 4.3982 -1.7069 20.075 5.0056 1.16313 -0.348939 -6.58388 -13.6458 -0.0470124 -4.849 50.3363 2.77136 41.175 -28.3255 -0.975884 2.2888 68.2365 21.4681 89.4197 -22.1583 -0.530007 10.8316 -24.0566 0.399488 13.2682 -0.785997 0.112006 2.5817 -19.2124 49.9311 17.7821 -0.360108 -0.87799 4.2331 -0.518154 0.461487 -1.59087 -1.81269 -1.216 2.2227 -4.4436 5.02821 -15.268 -0.9571 1.114 1.7695 -3.18055e-015 3.18055e-015 3.18055e-015 -4.1246 0.487013 4.1451 -23.6186 3.40243 -15.5054 -3.4052 -1.45401 2.7682 39.4986 10.0975 -9.27472 -1.4531 -1.79499 1.27131 45.4781 10.9509 -11.1601 -5.6954 0.210004 2.1184 -1.04226 5.48638 -10.0635 -3.9766 -1.54 2.3863 52.3088 13.53 -14.1043 -1.4042 -1.926 1.125 44.0034 12.3922 -11.1855 -2.0956 0.66 -0.3894 -3.18055e-015 3.18055e-015 3.18055e-015 -5.03951 -0.0899889 2.4971 16.4923 0.275101 -5.6589 -3.7921 -1.55201 1.4806 37.3339 11.9097 -10.7861 -1.4655 -1.80801 0.960899 38.6322 12.1693 -11.2725 -4.9141 -1.26899 0.359201 24.6636 -0.263336 -2.07523 -3.1477 -1.68501 0.846196 30.5283 11.3151 -8.19402 -0.805498 -1.585 0.795498 30.4593 11.2958 -8.16995 8.367 -8.2066 0.598197 8.52442 -46.6158 12.5211 2.19277 -43.463 -0.493808 179.588 79.8487 -177.106 0.733285 -45.8593 -2.64511 1.11111 0.748619 -11.0476 -8.36699 -8.2066 0.598201 16.3314 -67.7046 -19.1196 -2.19229 -43.463 -0.49309 37.4042 66.6512 -32.283 -0.733308 -45.8593 -2.64511 1.67082 -1.29061 -8.31469 
